<?xml version="1.0" encoding="utf-8"?>
<!-- Generator: Adobe Illustrator 24.3.0, SVG Export Plug-In . SVG Version: 6.00 Build 0)  -->
<svg version="1.1" id="Layer_1" xmlns="http://www.w3.org/2000/svg" xmlns:xlink="http://www.w3.org/1999/xlink" x="0px" y="0px"
	 viewBox="0 0 512 512" style="enable-background:new 0 0 512 512;" xml:space="preserve">
<style type="text/css">
	.st0{fill:#292929;}
	.st1{fill:#231F20;}
	.st2{fill:url(#XMLID_72_);}
	.st3{fill:url(#XMLID_73_);}
	.st4{fill:url(#XMLID_74_);}
	.st5{fill:url(#XMLID_75_);}
	.st6{fill:url(#XMLID_76_);}
	.st7{fill:url(#XMLID_77_);}
	.st8{fill:url(#XMLID_78_);}
	.st9{fill:url(#XMLID_79_);}
	.st10{fill:url(#XMLID_80_);}
	.st11{fill:url(#XMLID_81_);}
	.st12{fill:url(#XMLID_82_);}
	.st13{fill:url(#XMLID_83_);}
	.st14{fill:url(#XMLID_84_);}
	.st15{fill:url(#XMLID_85_);}
	.st16{fill:url(#XMLID_86_);}
	.st17{fill:url(#XMLID_87_);}
	.st18{fill:url(#XMLID_88_);stroke:#B8B8B8;}
	.st19{fill:#191919;}
	.st20{fill:url(#XMLID_89_);stroke:#B8B8B8;}
	.st21{fill:#FFFFFF;}
	.st22{fill:url(#XMLID_90_);}
	.st23{fill:url(#XMLID_91_);}
	.st24{fill:url(#XMLID_92_);}
	.st25{fill:url(#XMLID_93_);}
	.st26{fill:url(#XMLID_94_);}
	.st27{fill:url(#XMLID_95_);}
	.st28{fill:url(#XMLID_96_);}
	.st29{fill:url(#XMLID_97_);}
	.st30{fill:url(#XMLID_98_);}
	.st31{fill:url(#XMLID_99_);}
	.st32{fill:url(#XMLID_100_);}
	.st33{fill:#929292;}
	.st34{fill:#F2F2F2;}
	.st35{fill:#848C8E;}
	.st36{fill:url(#XMLID_101_);}
	.st37{fill:url(#XMLID_102_);}
	.st38{fill:url(#XMLID_103_);}
</style>
<rect id="XMLID_17_" class="st0" width="512" height="512"/>
<g id="XMLID_1_">
	<g id="XMLID_2_">
		<g id="XMLID_3_">
			<polyline id="XMLID_64_" class="st1" points="304.03,236.95 333.72,236.95 333.72,233.68 313.14,233.68 313.14,218.93 
				304.03,218.93 304.03,236.95 			"/>
			<path id="XMLID_63_" class="st1" d="M132.92,218.93v18.02h9.11c0,0,0-7.17,0-7.37c0.2,0,15.56,0,15.77,0c0,0.2,0,7.37,0,7.37
				h9.11v-18.02h-9.11c0,0,0,7.17,0,7.37c-0.2,0-15.56,0-15.77,0c0-0.2,0-7.37,0-7.37H132.92"/>
			<path id="XMLID_62_" class="st1" d="M246.58,218.93l-8.4,7.58l-8.7-7.58l-10.55-0.72v0.72c0,0,12.8,10.65,12.9,10.75
				c0,0.1,0,7.37,0,7.37h9.11c0,0,0-7.37,0-7.48c0.1,0,11.88-10.55,11.88-10.55v-0.72L246.58,218.93"/>
			<polyline id="XMLID_61_" class="st1" points="343.86,236.95 374.07,236.95 374.07,233.98 352.87,233.98 352.87,229.38 
				373.25,229.38 373.25,226.3 352.87,226.3 352.87,222 373.66,222 373.66,218.93 343.86,218.93 343.86,236.95 			"/>
			<path id="XMLID_60_" class="st1" d="M260.2,223.64c0,4.2,4.81,5.22,11.37,6.04c6.76,0.82,9.83,1.02,9.83,2.66
				c0,1.43-1.95,2.15-7.78,2.15c-6.55,0-12.08-1.64-12.9-1.84c0,0.1-0.61,2.05-0.82,3.07c-0.1,0.31,0,0.72,0,0.72
				c0.92,0.2,6.14,1.43,14.13,1.43c8.7,0,17.2-1.54,17.2-6.25c0-3.28-3.38-4.92-13.21-6.04c-3.99-0.51-8.29-0.82-8.29-2.36
				c0-1.13,1.13-1.74,6.96-1.74c5.73,0,10.44,1.23,11.26,1.43l0.72-4.2c-1.02-0.2-6.66-0.51-14.13-0.51
				C268.29,218.11,260.2,219.03,260.2,223.64"/>
			<path id="XMLID_59_" class="st1" d="M89.5,227.94c0,5.84,6.14,9.83,18.94,9.83c4.92,0,10.14-0.72,10.96-0.82l0.82-4.51
				c-1.13,0.1-5.32,1.43-9.93,1.43c-7.07,0-11.88-1.74-11.88-5.94c0-4.2,4.51-5.94,11.98-5.94c4.2,0,8.7,0.61,9.73,0.72V222
				l-0.82-3.07c-1.33-0.1-5.84-0.82-10.75-0.82C95.74,218.21,89.5,222,89.5,227.94"/>
			<path id="XMLID_58_" class="st1" d="M180.94,236.95h9.11v-14.75c1.23-0.1,2.66-0.2,4.71-0.2c2.15,0,3.79,0,5.12,0.2
				c2.76,0.41,3.69,1.33,3.69,2.46c0,1.23-1.23,2.36-3.99,2.76c-1.84,0.2-3.07,0.31-4.71,0.31c-0.72,0-2.76-0.82-2.76-0.82v0.72
				l10.34,9.32h11.57v-0.72l-10.44-6.76c2.05-0.1,2.76-0.2,4.81-0.92c2.76-0.92,4.1-2.36,4.1-3.89c0-2.15-1.33-3.89-6.45-5.02
				c-2.87-0.61-6.35-0.92-11.16-0.92c-6.55,0-13.21,0.2-13.93,0.31C180.94,218.93,180.94,236.95,180.94,236.95"/>
			<path id="XMLID_57_" class="st1" d="M386.05,236.95h9.11v-14.75c1.23-0.1,2.66-0.2,4.71-0.2c2.15,0,3.79,0,5.12,0.2
				c2.76,0.41,3.69,1.33,3.58,2.46c0,1.23-1.23,2.36-3.99,2.76c-1.74,0.2-3.07,0.31-4.71,0.31c-0.82,0-2.76-0.82-2.76-0.82v0.72
				l10.34,9.32h11.57v-0.72l-10.44-6.76c2.05-0.1,2.76-0.2,4.92-0.92c2.76-0.92,4.1-2.36,4.2-3.89c0-2.15-1.33-3.89-6.45-5.02
				c-2.87-0.61-6.35-0.92-11.16-0.92c-6.55,0-13.21,0.2-13.93,0.31C386.05,218.93,386.05,236.95,386.05,236.95"/>
		</g>
		<g id="XMLID_4_">
			
				<linearGradient id="XMLID_72_" gradientUnits="userSpaceOnUse" x1="318.8736" y1="278.7421" x2="318.8736" y2="295.6382" gradientTransform="matrix(1 0 0 -1 0 514)">
				<stop  offset="0" style="stop-color:#FFFFFF"/>
				<stop  offset="0.2528" style="stop-color:#1E1E1E"/>
				<stop  offset="0.6629" style="stop-color:#C7C7C7"/>
				<stop  offset="0.8989" style="stop-color:#C7C7C7"/>
			</linearGradient>
			<polyline id="XMLID_56_" class="st2" points="304.03,235.21 333.72,235.21 333.72,232.14 313.14,232.14 313.14,218.32 
				304.03,218.32 304.03,235.21 			"/>
			
				<linearGradient id="XMLID_73_" gradientUnits="userSpaceOnUse" x1="149.9136" y1="278.7421" x2="149.9136" y2="295.6382" gradientTransform="matrix(1 0 0 -1 0 514)">
				<stop  offset="0" style="stop-color:#FFFFFF"/>
				<stop  offset="0.2528" style="stop-color:#1E1E1E"/>
				<stop  offset="0.6629" style="stop-color:#C7C7C7"/>
				<stop  offset="0.8989" style="stop-color:#C7C7C7"/>
			</linearGradient>
			<path id="XMLID_55_" class="st3" d="M132.92,218.32v16.9h9.11c0,0,0-6.66,0-6.86c0.2,0,15.56,0,15.77,0c0,0.2,0,6.86,0,6.86h9.11
				v-16.9h-9.11c0,0,0,6.66,0,6.86c-0.2,0-15.56,0-15.77,0c0-0.2,0-6.86,0-6.86H132.92"/>
			
				<linearGradient id="XMLID_74_" gradientUnits="userSpaceOnUse" x1="235.8784" y1="278.7421" x2="235.8784" y2="295.7001" gradientTransform="matrix(1 0 0 -1 0 514)">
				<stop  offset="0" style="stop-color:#FFFFFF"/>
				<stop  offset="0.2528" style="stop-color:#1E1E1E"/>
				<stop  offset="0.6629" style="stop-color:#C7C7C7"/>
				<stop  offset="0.8989" style="stop-color:#C7C7C7"/>
			</linearGradient>
			<path id="XMLID_54_" class="st4" d="M246.58,218.32l-8.4,7.17l-8.7-7.17l-10.44-0.1c0,0,12.7,10.04,12.8,10.04
				c0,0.1,0,6.86,0,6.86h9.11c0,0,0-6.96,0-7.07c0.1,0,11.78-9.93,11.78-9.93L246.58,218.32"/>
			
				<linearGradient id="XMLID_75_" gradientUnits="userSpaceOnUse" x1="358.9632" y1="278.7421" x2="358.9632" y2="295.6382" gradientTransform="matrix(1 0 0 -1 0 514)">
				<stop  offset="0" style="stop-color:#FFFFFF"/>
				<stop  offset="0.2528" style="stop-color:#1E1E1E"/>
				<stop  offset="0.6629" style="stop-color:#C7C7C7"/>
				<stop  offset="0.8989" style="stop-color:#C7C7C7"/>
			</linearGradient>
			<polyline id="XMLID_53_" class="st5" points="343.86,235.21 374.07,235.21 374.07,232.45 352.87,232.45 352.87,228.15 
				373.25,228.15 373.25,225.28 352.87,225.28 352.87,221.18 373.66,221.18 373.66,218.32 343.86,218.32 343.86,235.21 			"/>
			
				<linearGradient id="XMLID_76_" gradientUnits="userSpaceOnUse" x1="275.5584" y1="278.0119" x2="275.5584" y2="296.3927" gradientTransform="matrix(1 0 0 -1 0 514)">
				<stop  offset="0" style="stop-color:#FFFFFF"/>
				<stop  offset="0.2528" style="stop-color:#1E1E1E"/>
				<stop  offset="0.6629" style="stop-color:#C7C7C7"/>
				<stop  offset="0.8989" style="stop-color:#C7C7C7"/>
			</linearGradient>
			<path id="XMLID_52_" class="st6" d="M260.2,222.72c0,3.89,4.81,4.81,11.37,5.63c6.76,0.82,9.83,1.02,9.83,2.46
				c0,1.33-1.95,2.05-7.78,2.05c-6.55,0-12.08-1.54-12.9-1.74c0,0.2-0.82,4.51-0.82,4.51c0.92,0.2,6.14,0.31,14.13,0.31
				c8.7,0,17.2-1.43,17.2-5.84c0-3.07-3.38-4.61-13.21-5.63c-3.99-0.41-8.29-0.72-8.29-2.15c0-1.13,1.13-1.54,6.96-1.54
				c5.73,0,10.44,1.13,11.26,1.33l0.72-3.28c-1.02-0.2-6.66-1.13-14.13-1.13C268.29,217.6,260.2,218.42,260.2,222.72"/>
			
				<linearGradient id="XMLID_77_" gradientUnits="userSpaceOnUse" x1="104.8576" y1="278.0119" x2="104.8576" y2="296.3584" gradientTransform="matrix(1 0 0 -1 0 514)">
				<stop  offset="0" style="stop-color:#FFFFFF"/>
				<stop  offset="0.2528" style="stop-color:#1E1E1E"/>
				<stop  offset="0.6629" style="stop-color:#C7C7C7"/>
				<stop  offset="0.8989" style="stop-color:#C7C7C7"/>
			</linearGradient>
			<path id="XMLID_51_" class="st7" d="M89.5,226.82c0,5.43,6.14,9.22,18.94,9.22c4.92,0,10.14-0.72,10.96-0.82l0.82-2.76v-0.82
				c-1.13,0.1-5.32,0.72-9.93,0.72c-7.07,0-11.88-1.64-11.88-5.53c0-3.89,4.51-5.53,11.98-5.53c4.2,0,8.7,0.51,9.73,0.72l-0.82-3.58
				c-1.33-0.1-5.84-0.82-10.75-0.82C95.74,217.6,89.5,221.18,89.5,226.82"/>
			
				<linearGradient id="XMLID_78_" gradientUnits="userSpaceOnUse" x1="197.4784" y1="277.7155" x2="197.4784" y2="295.9027" gradientTransform="matrix(1 0 0 -1 0 514)">
				<stop  offset="0" style="stop-color:#FFFFFF"/>
				<stop  offset="0.2528" style="stop-color:#1E1E1E"/>
				<stop  offset="0.6629" style="stop-color:#C7C7C7"/>
				<stop  offset="0.8989" style="stop-color:#C7C7C7"/>
			</linearGradient>
			<path id="XMLID_50_" class="st8" d="M180.94,235.21h9.11v-13.93c1.23-0.1,2.66-0.2,4.71-0.2c2.15,0,3.79,0,5.12,0.2
				c2.76,0.41,3.69,1.23,3.69,2.36c0,1.13-1.23,2.15-3.99,2.56c-1.84,0.2-3.07,0.31-4.71,0.31c-0.92,0-1.64,0-2.76-0.1v0.41
				l10.34,8.29l11.57,1.02v-1.02l-10.44-7.07c2.05-0.1,2.76-0.2,4.81-0.82c2.76-0.82,4.1-2.15,4.1-3.69c0-1.95-1.33-3.69-6.45-4.71
				c-2.87-0.61-6.35-0.82-11.16-0.82c-6.55,0-13.21,0.2-13.93,0.31C180.94,218.42,180.94,235.21,180.94,235.21"/>
			
				<linearGradient id="XMLID_79_" gradientUnits="userSpaceOnUse" x1="402.5344" y1="277.7155" x2="402.5344" y2="295.9027" gradientTransform="matrix(1 0 0 -1 0 514)">
				<stop  offset="0" style="stop-color:#FFFFFF"/>
				<stop  offset="0.2528" style="stop-color:#1E1E1E"/>
				<stop  offset="0.6629" style="stop-color:#C7C7C7"/>
				<stop  offset="0.8989" style="stop-color:#C7C7C7"/>
			</linearGradient>
			<path id="XMLID_49_" class="st9" d="M386.05,235.21h9.11v-13.93c1.23-0.1,2.66-0.2,4.71-0.2c2.15,0,3.79,0,5.12,0.2
				c2.76,0.41,3.69,1.23,3.58,2.36c0,1.13-1.23,2.15-3.99,2.56c-1.74,0.2-3.07,0.31-4.71,0.31c-0.92,0-1.64,0-2.76-0.1v0.41
				l10.34,8.29l11.57,1.02v-1.02l-10.44-7.07c2.05-0.1,2.76-0.2,4.92-0.82c2.76-0.82,4.1-2.15,4.2-3.69c0-1.95-1.33-3.69-6.45-4.71
				c-2.87-0.61-6.35-0.82-11.16-0.82c-6.55,0-13.21,0.2-13.93,0.31C386.05,218.42,386.05,235.21,386.05,235.21"/>
		</g>
		<g id="XMLID_5_">
			
				<linearGradient id="XMLID_80_" gradientUnits="userSpaceOnUse" x1="318.8736" y1="277.7155" x2="318.8736" y2="295.7701" gradientTransform="matrix(1 0 0 -1 0 514)">
				<stop  offset="0.0281" style="stop-color:#3C3C3C"/>
				<stop  offset="0.0618" style="stop-color:#2D2D2D"/>
				<stop  offset="0.2362" style="stop-color:#787878"/>
				<stop  offset="0.3427" style="stop-color:#A1A1A1"/>
				<stop  offset="0.5787" style="stop-color:#FFFFFF"/>
				<stop  offset="0.7809" style="stop-color:#E9E9E9"/>
				<stop  offset="0.9101" style="stop-color:#CCCCCC"/>
				<stop  offset="1" style="stop-color:#8B8B8B"/>
			</linearGradient>
			<polyline id="XMLID_48_" class="st10" points="304.03,236.24 333.72,236.24 333.72,232.96 313.14,232.96 313.14,218.21 
				304.03,218.21 304.03,236.24 			"/>
			
				<linearGradient id="XMLID_81_" gradientUnits="userSpaceOnUse" x1="149.9136" y1="277.7155" x2="149.9136" y2="295.7701" gradientTransform="matrix(1 0 0 -1 0 514)">
				<stop  offset="0.0281" style="stop-color:#3C3C3C"/>
				<stop  offset="0.0618" style="stop-color:#2D2D2D"/>
				<stop  offset="0.2362" style="stop-color:#787878"/>
				<stop  offset="0.3427" style="stop-color:#A1A1A1"/>
				<stop  offset="0.5787" style="stop-color:#FFFFFF"/>
				<stop  offset="0.7809" style="stop-color:#E9E9E9"/>
				<stop  offset="0.9101" style="stop-color:#CCCCCC"/>
				<stop  offset="1" style="stop-color:#8B8B8B"/>
			</linearGradient>
			<path id="XMLID_47_" class="st11" d="M132.92,218.21v18.02h9.11c0,0,0-7.17,0-7.37c0.2,0,15.56,0,15.77,0c0,0.2,0,7.37,0,7.37
				h9.11v-18.02h-9.11c0,0,0,7.17,0,7.37c-0.2,0-15.56,0-15.77,0c0-0.2,0-7.37,0-7.37H132.92"/>
			
				<linearGradient id="XMLID_82_" gradientUnits="userSpaceOnUse" x1="235.8784" y1="277.7155" x2="235.8784" y2="295.7701" gradientTransform="matrix(1 0 0 -1 0 514)">
				<stop  offset="0.0281" style="stop-color:#3C3C3C"/>
				<stop  offset="0.0618" style="stop-color:#2D2D2D"/>
				<stop  offset="0.2362" style="stop-color:#787878"/>
				<stop  offset="0.3427" style="stop-color:#A1A1A1"/>
				<stop  offset="0.5787" style="stop-color:#FFFFFF"/>
				<stop  offset="0.7809" style="stop-color:#E9E9E9"/>
				<stop  offset="0.9101" style="stop-color:#CCCCCC"/>
				<stop  offset="1" style="stop-color:#8B8B8B"/>
			</linearGradient>
			<path id="XMLID_46_" class="st12" d="M246.58,218.21l-8.4,7.58l-8.7-7.58h-10.55c0,0,12.8,10.65,12.9,10.75c0,0.1,0,7.37,0,7.37
				h9.11c0,0,0-7.37,0-7.48c0.1,0,11.88-10.55,11.88-10.55h-6.25"/>
			
				<linearGradient id="XMLID_83_" gradientUnits="userSpaceOnUse" x1="358.9632" y1="277.7155" x2="358.9632" y2="295.7701" gradientTransform="matrix(1 0 0 -1 0 514)">
				<stop  offset="0.0281" style="stop-color:#3C3C3C"/>
				<stop  offset="0.0618" style="stop-color:#2D2D2D"/>
				<stop  offset="0.2362" style="stop-color:#787878"/>
				<stop  offset="0.3427" style="stop-color:#A1A1A1"/>
				<stop  offset="0.5787" style="stop-color:#FFFFFF"/>
				<stop  offset="0.7809" style="stop-color:#E9E9E9"/>
				<stop  offset="0.9101" style="stop-color:#CCCCCC"/>
				<stop  offset="1" style="stop-color:#8B8B8B"/>
			</linearGradient>
			<polyline id="XMLID_45_" class="st13" points="343.86,236.24 374.07,236.24 374.07,233.27 352.87,233.27 352.87,228.66 
				373.25,228.66 373.25,225.59 352.87,225.59 352.87,221.29 373.66,221.29 373.66,218.21 343.86,218.21 343.86,236.24 			"/>
			
				<linearGradient id="XMLID_84_" gradientUnits="userSpaceOnUse" x1="275.5584" y1="276.9355" x2="275.5584" y2="296.5721" gradientTransform="matrix(1 0 0 -1 0 514)">
				<stop  offset="0.0281" style="stop-color:#3C3C3C"/>
				<stop  offset="0.0618" style="stop-color:#2D2D2D"/>
				<stop  offset="0.2362" style="stop-color:#787878"/>
				<stop  offset="0.3427" style="stop-color:#A1A1A1"/>
				<stop  offset="0.5787" style="stop-color:#FFFFFF"/>
				<stop  offset="0.7809" style="stop-color:#E9E9E9"/>
				<stop  offset="0.9101" style="stop-color:#CCCCCC"/>
				<stop  offset="1" style="stop-color:#8B8B8B"/>
			</linearGradient>
			<path id="XMLID_44_" class="st14" d="M260.2,222.92c0,4.2,4.81,5.22,11.37,6.04c6.76,0.82,9.83,1.02,9.83,2.66
				c0,1.43-1.95,2.15-7.78,2.15c-6.55,0-12.08-1.64-12.9-1.84c0,0.2-0.82,3.79-0.82,3.79c0.92,0.2,6.14,1.43,14.13,1.43
				c8.7,0,17.2-1.54,17.2-6.25c0-3.28-3.38-4.92-13.21-6.04c-3.99-0.51-8.29-0.82-8.29-2.36c0-1.13,1.13-1.74,6.96-1.74
				c5.73,0,10.44,1.23,11.26,1.43l0.72-3.48c-1.02-0.2-6.66-1.23-14.13-1.23C268.29,217.4,260.2,218.32,260.2,222.92"/>
			
				<linearGradient id="XMLID_85_" gradientUnits="userSpaceOnUse" x1="104.8576" y1="276.944" x2="104.8576" y2="296.5439" gradientTransform="matrix(1 0 0 -1 0 514)">
				<stop  offset="0.0281" style="stop-color:#3C3C3C"/>
				<stop  offset="0.0618" style="stop-color:#2D2D2D"/>
				<stop  offset="0.2362" style="stop-color:#787878"/>
				<stop  offset="0.3427" style="stop-color:#A1A1A1"/>
				<stop  offset="0.5787" style="stop-color:#FFFFFF"/>
				<stop  offset="0.7809" style="stop-color:#E9E9E9"/>
				<stop  offset="0.9101" style="stop-color:#CCCCCC"/>
				<stop  offset="1" style="stop-color:#8B8B8B"/>
			</linearGradient>
			<path id="XMLID_43_" class="st15" d="M89.5,227.23c0,5.84,6.14,9.83,18.94,9.83c4.92,0,10.14-0.72,10.96-0.82l0.82-3.79
				c-1.13,0.1-5.32,0.72-9.93,0.72c-7.07,0-11.88-1.74-11.88-5.94c0-4.2,4.51-5.94,11.98-5.94c4.2,0,8.7,0.61,9.73,0.72l-0.82-3.79
				c-1.33-0.1-5.84-0.82-10.75-0.82C95.74,217.5,89.5,221.29,89.5,227.23"/>
			
				<linearGradient id="XMLID_86_" gradientUnits="userSpaceOnUse" x1="197.4784" y1="277.7155" x2="197.4784" y2="296.0451" gradientTransform="matrix(1 0 0 -1 0 514)">
				<stop  offset="0.0281" style="stop-color:#3C3C3C"/>
				<stop  offset="0.0618" style="stop-color:#2D2D2D"/>
				<stop  offset="0.2362" style="stop-color:#787878"/>
				<stop  offset="0.3427" style="stop-color:#A1A1A1"/>
				<stop  offset="0.5787" style="stop-color:#FFFFFF"/>
				<stop  offset="0.7809" style="stop-color:#E9E9E9"/>
				<stop  offset="0.9101" style="stop-color:#CCCCCC"/>
				<stop  offset="1" style="stop-color:#8B8B8B"/>
			</linearGradient>
			<path id="XMLID_42_" class="st16" d="M180.94,236.24h9.11v-14.85c1.23-0.1,2.66-0.2,4.71-0.2c2.15,0,3.79,0,5.12,0.2
				c2.76,0.41,3.69,1.33,3.69,2.46c0,1.23-1.23,2.36-3.99,2.76c-1.84,0.2-3.07,0.31-4.71,0.31c-0.92,0-1.64,0-2.76-0.1l10.34,9.32
				h11.57l-10.44-7.48c2.05-0.1,2.76-0.2,4.81-0.92c2.76-0.92,4.1-2.36,4.1-3.89c0-2.15-1.33-3.89-6.45-5.02
				c-2.87-0.61-6.35-0.92-11.16-0.92c-6.55,0-13.21,0.2-13.93,0.31C180.94,218.21,180.94,236.24,180.94,236.24"/>
			
				<linearGradient id="XMLID_87_" gradientUnits="userSpaceOnUse" x1="402.5344" y1="277.7155" x2="402.5344" y2="296.0451" gradientTransform="matrix(1 0 0 -1 0 514)">
				<stop  offset="0.0281" style="stop-color:#3C3C3C"/>
				<stop  offset="0.0618" style="stop-color:#2D2D2D"/>
				<stop  offset="0.2362" style="stop-color:#787878"/>
				<stop  offset="0.3427" style="stop-color:#A1A1A1"/>
				<stop  offset="0.5787" style="stop-color:#FFFFFF"/>
				<stop  offset="0.7809" style="stop-color:#E9E9E9"/>
				<stop  offset="0.9101" style="stop-color:#CCCCCC"/>
				<stop  offset="1" style="stop-color:#8B8B8B"/>
			</linearGradient>
			<path id="XMLID_41_" class="st17" d="M386.05,236.24h9.11v-14.85c1.23-0.1,2.66-0.2,4.71-0.2c2.15,0,3.79,0,5.12,0.2
				c2.76,0.41,3.69,1.33,3.58,2.46c0,1.23-1.23,2.36-3.99,2.76c-1.74,0.2-3.07,0.31-4.71,0.31c-0.92,0-1.64,0-2.76-0.1l10.34,9.32
				h11.57l-10.44-7.48c2.05-0.1,2.76-0.2,4.92-0.92c2.76-0.92,4.1-2.36,4.2-3.89c0-2.15-1.33-3.89-6.45-5.02
				c-2.87-0.61-6.35-0.92-11.16-0.92c-6.55,0-13.21,0.2-13.93,0.31C386.05,218.21,386.05,236.24,386.05,236.24"/>
		</g>
	</g>
	<g id="XMLID_6_">
		
			<linearGradient id="XMLID_88_" gradientUnits="userSpaceOnUse" x1="160.4354" y1="225.5693" x2="163.6773" y2="262.6239" gradientTransform="matrix(1 0 0 -1 0 514)">
			<stop  offset="0.0281" style="stop-color:#3C3C3C"/>
			<stop  offset="0.0618" style="stop-color:#2D2D2D"/>
			<stop  offset="0.2183" style="stop-color:#8F8F8F"/>
			<stop  offset="0.2921" style="stop-color:#B8B8B8"/>
			<stop  offset="0.5169" style="stop-color:#474747"/>
			<stop  offset="0.5787" style="stop-color:#FFFFFF"/>
			<stop  offset="0.7809" style="stop-color:#E9E9E9"/>
			<stop  offset="0.882" style="stop-color:#CCCCCC"/>
			<stop  offset="0.9382" style="stop-color:#8B8B8B"/>
			<stop  offset="1" style="stop-color:#606060"/>
		</linearGradient>
		<path id="XMLID_40_" class="st18" d="M256.61,291.64c-4.4-0.2-11.78,0.51-13.93,1.33c-2.46,1.02-3.28,1.64-9.22,1.64
			c-6.04,0-17.82-1.64-17.82-1.64S89.8,273.72,86.43,272.59c-3.38-1.13-7.58-3.38-12.39-6.25c-4.71-2.87-7.48-5.43-7.48-7.37
			c0-1.84,2.97-2.36,2.97-2.36l138.75-0.82c0,0,5.73-0.2,7.68,0.2c1.95,0.51,10.34,4.3,12.9,4.81c6.25,1.23,27.75,0.72,27.75,0.72"
			/>
		<path id="XMLID_39_" class="st19" d="M89.91,262.66l86.12,1.43c0,0,2.76,0.1,4.61,0.61c1.84,0.51,3.79,1.95,3.79,1.95h21.81
			c0,0-7.48,0.2-8.09,0.51c-0.61,0.31-0.2,0.51-0.2,0.51h-15.67l0.61,0.61l4.71,0.61l3.58,2.97h17.2c0,0-3.28,0.61-3.89,1.13
			s-0.61,0.51-0.61,0.51h-12.9c0,0,0.41,0.72,2.25,0.82c1.84,0.1,2.05,0.51,2.87,0.72c0.82,0.2,4.51,3.38,11.98,5.53
			c7.48,2.15,20.79,4.4,20.79,4.4s-19.25-0.41-27.65-3.99c-8.4-3.58-19.76-11.88-22.32-12.9c-2.56-1.02-5.22-0.72-5.22-0.72
			s-58.57-2.36-65.23-2.87C101.79,263.99,89.91,262.66,89.91,262.66z"/>
		
			<linearGradient id="XMLID_89_" gradientUnits="userSpaceOnUse" x1="-273.7638" y1="225.5647" x2="-270.5212" y2="262.6282" gradientTransform="matrix(-1 0 0 -1 77.75 514)">
			<stop  offset="0.0281" style="stop-color:#3C3C3C"/>
			<stop  offset="0.0618" style="stop-color:#2D2D2D"/>
			<stop  offset="0.2183" style="stop-color:#8F8F8F"/>
			<stop  offset="0.2921" style="stop-color:#B8B8B8"/>
			<stop  offset="0.5169" style="stop-color:#474747"/>
			<stop  offset="0.5787" style="stop-color:#FFFFFF"/>
			<stop  offset="0.7809" style="stop-color:#E9E9E9"/>
			<stop  offset="0.882" style="stop-color:#CCCCCC"/>
			<stop  offset="0.9382" style="stop-color:#8B8B8B"/>
			<stop  offset="1" style="stop-color:#606060"/>
		</linearGradient>
		<path id="XMLID_38_" class="st20" d="M255.39,291.64c4.4-0.2,11.78,0.51,13.93,1.33c2.46,1.02,3.28,1.64,9.22,1.64
			c6.04,0,17.82-1.64,17.82-1.64s125.75-19.15,129.13-20.38c3.38-1.13,7.58-3.38,12.39-6.25c4.71-2.87,7.48-5.43,7.48-7.37
			c0-1.84-2.97-2.36-2.97-2.36l-138.75-0.82c0,0-5.73-0.2-7.68,0.2c-1.95,0.51-10.34,4.3-12.9,4.81
			c-6.25,1.23-27.75,0.72-27.75,0.72"/>
		<path id="XMLID_37_" class="st19" d="M422.09,262.66l-86.12,1.43c0,0-2.76,0.1-4.61,0.61c-1.84,0.51-3.79,1.95-3.79,1.95h-21.81
			c0,0,7.48,0.2,8.09,0.51c0.61,0.31,0.2,0.51,0.2,0.51h15.67l-0.61,0.61l-4.71,0.61l-3.58,2.97h-17.2c0,0,3.28,0.61,3.89,1.13
			s0.61,0.51,0.61,0.51h12.9c0,0-0.41,0.72-2.25,0.82c-1.84,0.1-2.05,0.51-2.87,0.72c-0.82,0.2-4.51,3.38-11.98,5.53
			c-7.48,2.15-20.79,4.4-20.79,4.4s19.25-0.41,27.65-3.99c8.4-3.58,19.76-11.88,22.32-12.9c2.56-1.02,5.22-0.72,5.22-0.72
			s58.57-2.36,65.23-2.87C410.21,263.99,422.09,262.66,422.09,262.66z"/>
		<g id="XMLID_7_">
			<path id="XMLID_36_" class="st21" d="M256.61,278.32c0,0-16.18-0.1-26.52,0c-10.34,0.1-12.49-1.43-16.79-5.02
				c-5.73-4.81-5.02-7.07-5.02-7.07h48.33"/>
		</g>
		
			<linearGradient id="XMLID_90_" gradientUnits="userSpaceOnUse" x1="232.7962" y1="235.8112" x2="232.7962" y2="247.6526" gradientTransform="matrix(1 0 0 -1 0 514)">
			<stop  offset="5.617980e-03" style="stop-color:#000000"/>
			<stop  offset="0.118" style="stop-color:#00205F"/>
			<stop  offset="0.3315" style="stop-color:#00053F"/>
			<stop  offset="0.7584" style="stop-color:#000747"/>
			<stop  offset="0.8989" style="stop-color:#001E9F"/>
			<stop  offset="1" style="stop-color:#000000"/>
		</linearGradient>
		<path id="XMLID_35_" class="st22" d="M256.61,278.22c0,0-15.97-0.1-26.11,0c-10.14,0.1-12.8-1.74-16.59-5.02
			c-5.53-4.81-4.92-6.86-4.92-6.86h47.62"/>
		<g id="XMLID_8_">
			<path id="XMLID_34_" class="st21" d="M254.87,278.32c0,0,16.18-0.1,26.52,0c10.34,0.1,12.49-1.43,16.79-5.02
				c5.73-4.81,5.02-7.07,5.02-7.07h-48.33"/>
		</g>
		
			<linearGradient id="XMLID_91_" gradientUnits="userSpaceOnUse" x1="-401.9983" y1="235.8112" x2="-401.9983" y2="247.6526" gradientTransform="matrix(-1 0 0 -1 -124.0234 514)">
			<stop  offset="5.617980e-03" style="stop-color:#000000"/>
			<stop  offset="0.118" style="stop-color:#00205F"/>
			<stop  offset="0.3315" style="stop-color:#00053F"/>
			<stop  offset="0.7584" style="stop-color:#000747"/>
			<stop  offset="0.8989" style="stop-color:#001E9F"/>
			<stop  offset="1" style="stop-color:#000000"/>
		</linearGradient>
		<path id="XMLID_33_" class="st23" d="M254.87,278.22c0,0,15.97-0.1,26.11,0c10.14,0.1,12.8-1.74,16.59-5.02
			c5.53-4.81,4.92-6.86,4.92-6.86h-49.05"/>
		<g id="XMLID_9_">
			<polyline id="XMLID_32_" class="st21" points="265.42,273.61 272.18,273.61 272.18,272.79 267.47,272.79 267.47,269.52 
				265.42,269.52 265.42,273.61 			"/>
			
				<linearGradient id="XMLID_92_" gradientUnits="userSpaceOnUse" x1="268.8" y1="240.5091" x2="268.8" y2="244.3811" gradientTransform="matrix(1 0 0 -1 0 514)">
				<stop  offset="0.0281" style="stop-color:#686868"/>
				<stop  offset="0.3427" style="stop-color:#A1A1A1"/>
				<stop  offset="0.5787" style="stop-color:#FFFFFF"/>
				<stop  offset="0.7809" style="stop-color:#E9E9E9"/>
				<stop  offset="0.9101" style="stop-color:#CCCCCC"/>
				<stop  offset="1" style="stop-color:#8B8B8B"/>
			</linearGradient>
			<polyline id="XMLID_31_" class="st24" points="265.63,273.51 271.97,273.51 271.97,272.79 267.57,272.79 267.57,269.62 
				265.63,269.62 265.63,273.51 			"/>
			<path id="XMLID_30_" class="st21" d="M228.76,269.52v4.1h2.05v-1.64c0,0,3.48,0,3.58,0v1.64h2.05v-4.1h-2.05v1.64
				c0,0-3.48,0-3.58,0v-1.64H228.76"/>
			
				<linearGradient id="XMLID_93_" gradientUnits="userSpaceOnUse" x1="232.4992" y1="240.5091" x2="232.4992" y2="244.3811" gradientTransform="matrix(1 0 0 -1 0 514)">
				<stop  offset="0.0281" style="stop-color:#686868"/>
				<stop  offset="0.3427" style="stop-color:#A1A1A1"/>
				<stop  offset="0.5787" style="stop-color:#FFFFFF"/>
				<stop  offset="0.7809" style="stop-color:#E9E9E9"/>
				<stop  offset="0.9101" style="stop-color:#CCCCCC"/>
				<stop  offset="1" style="stop-color:#8B8B8B"/>
			</linearGradient>
			<path id="XMLID_29_" class="st25" d="M228.86,269.62v3.89h1.95v-1.54h3.38v1.54h1.95v-3.89h-1.95v1.54h-3.38v-1.54H228.86"/>
			<path id="XMLID_28_" class="st21" d="M253.44,269.41l-1.95,1.74l-2.05-1.74h-2.46l2.97,2.46v1.74h2.15v-1.74l2.76-2.46H253.44"/>
			
				<linearGradient id="XMLID_94_" gradientUnits="userSpaceOnUse" x1="250.9312" y1="240.5091" x2="250.9312" y2="244.3811" gradientTransform="matrix(1 0 0 -1 0 514)">
				<stop  offset="0.0281" style="stop-color:#686868"/>
				<stop  offset="0.3427" style="stop-color:#A1A1A1"/>
				<stop  offset="0.5787" style="stop-color:#FFFFFF"/>
				<stop  offset="0.7809" style="stop-color:#E9E9E9"/>
				<stop  offset="0.9101" style="stop-color:#CCCCCC"/>
				<stop  offset="1" style="stop-color:#8B8B8B"/>
			</linearGradient>
			<path id="XMLID_27_" class="st26" d="M253.24,269.62l-1.84,1.64l-1.84-1.64h-2.25l2.76,2.25v1.54h1.95c0,0,0-1.54,0-1.64
				l2.56-2.25h-1.33"/>
			<polyline id="XMLID_26_" class="st21" points="273.92,273.61 280.78,273.61 280.78,272.9 275.97,272.9 275.97,271.87 
				280.58,271.87 280.58,271.16 275.97,271.16 275.97,270.23 280.68,270.23 280.68,269.52 273.92,269.52 273.92,273.61 			"/>
			
				<linearGradient id="XMLID_95_" gradientUnits="userSpaceOnUse" x1="277.3504" y1="240.5091" x2="277.3504" y2="244.3811" gradientTransform="matrix(1 0 0 -1 0 514)">
				<stop  offset="0.0281" style="stop-color:#686868"/>
				<stop  offset="0.3427" style="stop-color:#A1A1A1"/>
				<stop  offset="0.5787" style="stop-color:#FFFFFF"/>
				<stop  offset="0.7809" style="stop-color:#E9E9E9"/>
				<stop  offset="0.9101" style="stop-color:#CCCCCC"/>
				<stop  offset="1" style="stop-color:#8B8B8B"/>
			</linearGradient>
			<polyline id="XMLID_25_" class="st27" points="274.12,273.51 280.58,273.51 280.58,272.79 276.07,272.79 276.07,271.87 
				280.47,271.87 280.47,271.16 276.07,271.16 276.07,270.23 280.47,270.23 280.47,269.62 274.12,269.62 274.12,273.51 			"/>
			<path id="XMLID_24_" class="st21" d="M255.9,270.54c0,0.92,1.13,1.23,2.66,1.33c1.54,0.2,2.25,0.2,2.25,0.61
				c0,0.31-0.41,0.51-1.74,0.51c-1.54,0-2.76-0.41-2.97-0.41l-0.2,0.82c0.2,0,1.43,0.31,3.28,0.31c2.05,0,3.99-0.31,3.99-1.43
				c0-0.72-0.82-1.13-3.07-1.43c-0.92-0.1-1.95-0.2-1.95-0.51s0.31-0.41,1.64-0.41s2.46,0.31,2.56,0.31l0.2-0.82
				c-0.2,0-1.54-0.31-3.28-0.31C257.84,269.31,255.9,269.52,255.9,270.54"/>
			
				<linearGradient id="XMLID_96_" gradientUnits="userSpaceOnUse" x1="259.5328" y1="240.3419" x2="259.5328" y2="244.5528" gradientTransform="matrix(1 0 0 -1 0 514)">
				<stop  offset="0.0281" style="stop-color:#686868"/>
				<stop  offset="0.3427" style="stop-color:#A1A1A1"/>
				<stop  offset="0.5787" style="stop-color:#FFFFFF"/>
				<stop  offset="0.7809" style="stop-color:#E9E9E9"/>
				<stop  offset="0.9101" style="stop-color:#CCCCCC"/>
				<stop  offset="1" style="stop-color:#8B8B8B"/>
			</linearGradient>
			<path id="XMLID_21_" class="st28" d="M256.2,270.64c0,0.92,1.02,1.13,2.46,1.33c1.43,0.2,2.15,0.2,2.15,0.61
				c0,0.31-0.41,0.51-1.64,0.51c-1.43,0-2.56-0.31-2.76-0.41l-0.2,0.82c0.2,0,1.33,0.31,2.97,0.31c1.84,0,3.69-0.31,3.69-1.33
				c0-0.72-0.72-1.02-2.87-1.33c-0.82-0.1-1.74-0.2-1.74-0.51c0-0.2,0.2-0.41,1.43-0.41s2.25,0.31,2.46,0.31l0.2-0.72
				c-0.2,0-1.43-0.31-3.07-0.31C257.95,269.41,256.2,269.62,256.2,270.64"/>
			<path id="XMLID_20_" class="st21" d="M219.34,271.56c0,1.33,1.43,2.25,4.3,2.25c1.13,0,2.25-0.2,2.46-0.2l0.2-0.82
				c-0.2,0-1.23,0.2-2.25,0.2c-1.64,0-2.66-0.41-2.66-1.33c0-0.92,1.02-1.33,2.66-1.33c0.92,0,1.95,0.1,2.25,0.2l-0.2-0.82
				c-0.31,0-1.33-0.2-2.46-0.2C220.77,269.31,219.34,270.23,219.34,271.56"/>
			
				<linearGradient id="XMLID_97_" gradientUnits="userSpaceOnUse" x1="222.8736" y1="240.3419" x2="222.8736" y2="244.5455" gradientTransform="matrix(1 0 0 -1 0 514)">
				<stop  offset="0.0281" style="stop-color:#686868"/>
				<stop  offset="0.3427" style="stop-color:#A1A1A1"/>
				<stop  offset="0.5787" style="stop-color:#FFFFFF"/>
				<stop  offset="0.7809" style="stop-color:#E9E9E9"/>
				<stop  offset="0.9101" style="stop-color:#CCCCCC"/>
				<stop  offset="1" style="stop-color:#8B8B8B"/>
			</linearGradient>
			<path id="XMLID_19_" class="st29" d="M219.55,271.56c0,1.23,1.33,2.15,4.1,2.15c1.02,0,2.15-0.2,2.36-0.2l0.2-0.82
				c-0.2,0-1.13,0.2-2.15,0.2c-1.54,0-2.56-0.41-2.56-1.23c0-0.92,1.02-1.23,2.56-1.23c0.92,0,1.84,0.1,2.05,0.2l-0.2-0.82
				c-0.31,0-1.23-0.2-2.25-0.2C220.88,269.41,219.55,270.23,219.55,271.56"/>
			<path id="XMLID_18_" class="st21" d="M239.1,273.51h2.05v-3.28c0.31,0,0.61,0,1.02,0c0.51,0,0.82,0,1.13,0
				c0.61,0.1,0.82,0.31,0.82,0.51c0,0.31-0.31,0.51-0.92,0.61c-0.41,0.1-0.72,0.1-1.02,0.1c-0.2,0-0.41,0-0.61,0l2.25,2.05h2.56
				l-2.36-1.64c0.41,0,0.61-0.1,1.13-0.2c0.61-0.2,0.92-0.51,0.92-0.92c0-0.51-0.31-0.82-1.43-1.13c-0.61-0.1-1.43-0.2-2.46-0.2
				c-1.43,0-2.97,0.1-3.07,0.1C239.1,269.52,239.1,273.51,239.1,273.51"/>
			
				<linearGradient id="XMLID_98_" gradientUnits="userSpaceOnUse" x1="242.7904" y1="240.5091" x2="242.7904" y2="244.4407" gradientTransform="matrix(1 0 0 -1 0 514)">
				<stop  offset="0.0281" style="stop-color:#686868"/>
				<stop  offset="0.3427" style="stop-color:#A1A1A1"/>
				<stop  offset="0.5787" style="stop-color:#FFFFFF"/>
				<stop  offset="0.7809" style="stop-color:#E9E9E9"/>
				<stop  offset="0.9101" style="stop-color:#CCCCCC"/>
				<stop  offset="1" style="stop-color:#8B8B8B"/>
			</linearGradient>
			<path id="XMLID_15_" class="st30" d="M239.21,273.51h1.95v-3.17c0.31,0,0.61,0,1.02,0c0.51,0,0.82,0,1.13,0
				c0.61,0.1,0.82,0.31,0.82,0.51c0,0.31-0.31,0.51-0.82,0.61c-0.41,0.1-0.61,0.1-1.02,0.1c-0.2,0-0.31,0-0.61,0l2.25,2.05h2.46
				l-2.25-1.64c0.41,0,0.61,0,1.02-0.2c0.61-0.2,0.92-0.51,0.92-0.82c0-0.41-0.31-0.82-1.33-1.13c-0.61-0.1-1.33-0.2-2.36-0.2
				c-1.43,0-2.87,0.1-2.97,0.1C239.21,269.62,239.21,273.51,239.21,273.51"/>
			<path id="XMLID_14_" class="st21" d="M282.93,273.61h2.05v-3.38c0.31,0,0.61-0.1,1.13-0.1s0.82,0,1.13,0.1
				c0.61,0.1,0.82,0.31,0.82,0.61c0,0.31-0.31,0.51-0.92,0.61c-0.41,0.1-0.72,0.1-1.02,0.1c-0.2,0-0.41,0-0.61,0l2.36,2.15h2.66
				l-2.36-1.74c0.51,0,0.61-0.1,1.13-0.2c0.61-0.2,0.92-0.51,0.92-0.92c0-0.51-0.31-0.92-1.43-1.13c-0.61-0.1-1.43-0.2-2.56-0.2
				c-1.54,0-2.97,0.1-3.17,0.1C282.93,269.52,282.93,273.61,282.93,273.61"/>
			
				<linearGradient id="XMLID_99_" gradientUnits="userSpaceOnUse" x1="286.72" y1="240.5091" x2="286.72" y2="244.4407" gradientTransform="matrix(1 0 0 -1 0 514)">
				<stop  offset="0.0281" style="stop-color:#686868"/>
				<stop  offset="0.3427" style="stop-color:#A1A1A1"/>
				<stop  offset="0.5787" style="stop-color:#FFFFFF"/>
				<stop  offset="0.7809" style="stop-color:#E9E9E9"/>
				<stop  offset="0.9101" style="stop-color:#CCCCCC"/>
				<stop  offset="1" style="stop-color:#8B8B8B"/>
			</linearGradient>
			<path id="XMLID_13_" class="st31" d="M283.14,273.51h1.95v-3.17c0.31,0,0.51,0,1.02,0s0.82,0,1.13,0
				c0.61,0.1,0.82,0.31,0.82,0.51c0,0.31-0.31,0.51-0.82,0.61c-0.41,0.1-0.61,0.1-1.02,0.1c-0.2,0-0.31,0-0.61,0l2.25,2.05h2.46
				l-2.25-1.64c0.41,0,0.61,0,1.02-0.2c0.61-0.2,0.92-0.51,0.92-0.82c0-0.41-0.31-0.82-1.33-1.13c-0.61-0.1-1.33-0.2-2.36-0.2
				c-1.43,0-2.87,0.1-2.97,0.1C283.14,269.62,283.14,273.51,283.14,273.51"/>
		</g>
		
			<linearGradient id="XMLID_100_" gradientUnits="userSpaceOnUse" x1="211.2512" y1="243.1008" x2="188.5184" y2="243.1008" gradientTransform="matrix(1 0 0 -1 0 514)">
			<stop  offset="0.1461" style="stop-color:#DADADA"/>
			<stop  offset="1" style="stop-color:#666666"/>
		</linearGradient>
		<polyline id="XMLID_12_" class="st32" points="208.79,269.62 188.52,269.62 191.49,272.18 211.25,272.18 		"/>
		<path id="XMLID_11_" class="st33" d="M206.23,266.65c0,0-5.22,0-6.96,0.1c-1.54,0.1-1.95,0.92-1.95,0.92s3.79,1.13,5.53,1.13
			c1.13,0.1,5.22,0.31,5.22,0.31L206.23,266.65z"/>
		<path id="XMLID_10_" class="st34" d="M203.78,273.51h-13.31c0,0,1.13,1.43,2.97,1.54c1.95,0.1,17.92,0,17.92,0L203.78,273.51z"/>
		<path id="XMLID_16_" class="st34" d="M307.71,273.51h13.41c0,0-1.13,1.43-2.97,1.54c-1.95,0.1-17.92,0-17.92,0L307.71,273.51z"/>
		<path id="XMLID_22_" class="st35" d="M209.72,272.28c-1.64,0.1-2.25,0-2.76,0c-2.15,0.2-3.28,1.23-3.28,1.23s1.74,0.61,3.69,1.02
			c1.95,0.41,5.02,0.61,5.02,0.61"/>
		
			<linearGradient id="XMLID_101_" gradientUnits="userSpaceOnUse" x1="-323.985" y1="243.1008" x2="-346.7179" y2="243.1008" gradientTransform="matrix(-1 0 0 -1 -23.166 514)">
			<stop  offset="0.1461" style="stop-color:#DADADA"/>
			<stop  offset="1" style="stop-color:#666666"/>
		</linearGradient>
		<polyline id="XMLID_23_" class="st36" points="303.31,269.62 323.58,269.62 320.61,272.18 300.85,272.18 		"/>
		<path id="XMLID_65_" class="st33" d="M305.77,266.65c0,0,5.02,0,6.66,0.2c1.54,0.1,2.25,0.92,2.25,0.92s-3.79,1.13-5.53,1.13
			c-1.13,0.1-5.22,0.31-5.22,0.31L305.77,266.65z"/>
		<path id="XMLID_66_" class="st35" d="M302.39,272.28c1.64,0.1,2.25,0,2.76,0c2.15,0.2,3.58,1.23,3.58,1.23s-2.05,0.61-3.99,1.02
			c-1.95,0.41-5.02,0.61-5.02,0.61"/>
		<path id="XMLID_67_" d="M256.41,291.12c0,0-4.81,0-8.4,0.51c-6.86,1.02-5.84,1.64-9.42,2.56s-17.1-0.82-17.1-0.82
			S102.6,275.25,96.05,274.23c-9.63-1.54-9.22-1.23-16.69-5.02c-10.04-5.02-12.7-9.52-12.7-9.52s1.84,0.92,4.3,2.56
			c12.7,8.19,13.82,7.78,16.28,8.7c7.07,2.66,117.35,18.53,117.35,18.53s24.99,4.51,29.08,2.87c4.1-1.64,6.45-3.17,8.4-3.58
			c6.96-1.64,16.79-1.13,16.79-1.13"/>
		<path id="XMLID_68_" d="M255.59,291.12c0,0,4.81,0,8.4,0.51c6.86,1.02,5.84,1.64,9.42,2.56c3.58,0.92,17.1-0.82,17.1-0.82
			s118.89-18.12,125.44-19.15c9.63-1.54,9.11-1.43,16.69-5.02c10.44-5.02,12.7-9.52,12.7-9.52s-1.84,0.92-4.3,2.56
			c-12.7,8.19-13.82,7.78-16.28,8.7c-7.07,2.66-117.35,18.53-117.35,18.53s-24.99,4.51-29.08,2.87c-4.1-1.64-6.45-3.17-8.4-3.58
			c-6.96-1.64-16.28-1.02-16.28-1.02"/>
		
			<linearGradient id="XMLID_102_" gradientUnits="userSpaceOnUse" x1="162.6112" y1="249.2072" x2="162.6112" y2="257.9976" gradientTransform="matrix(1 0 0 -1 0 514)">
			<stop  offset="0.0281" style="stop-color:#B0B0B0"/>
			<stop  offset="0.3258" style="stop-color:#DCDCDC"/>
			<stop  offset="0.5787" style="stop-color:#B5B5B5"/>
			<stop  offset="0.6798" style="stop-color:#9D9D9D"/>
			<stop  offset="0.9382" style="stop-color:#8B8B8B"/>
		</linearGradient>
		<path id="XMLID_69_" class="st37" d="M257.43,262.14c0,0-26.73,0-29.7-0.92c-2.05-0.61-8.29-3.69-10.24-4.3
			c-1.95-0.61-6.25-0.92-6.25-0.92s-140.19,0.82-141.41,1.02c-1.23,0.2-2.56,1.02-2.56,1.02s8.7,1.43,12.8,1.74
			c41.88,3.28,132.71,1.64,136.09,2.05c3.28,0.41,5.63,2.87,10.04,2.87c4.4,0,31.74,0,31.74,0"/>
		
			<linearGradient id="XMLID_103_" gradientUnits="userSpaceOnUse" x1="-277.7066" y1="249.2072" x2="-277.7066" y2="257.9976" gradientTransform="matrix(-1 0 0 -1 71.375 514)">
			<stop  offset="0.0281" style="stop-color:#B0B0B0"/>
			<stop  offset="0.3258" style="stop-color:#DCDCDC"/>
			<stop  offset="0.5787" style="stop-color:#B5B5B5"/>
			<stop  offset="0.6798" style="stop-color:#9D9D9D"/>
			<stop  offset="0.9382" style="stop-color:#8B8B8B"/>
		</linearGradient>
		<path id="XMLID_70_" class="st38" d="M254.26,262.14c0,0,26.73,0,29.7-0.92c2.05-0.61,8.29-3.69,10.24-4.3s6.25-0.92,6.25-0.92
			s140.19,0.82,141.41,1.02c1.23,0.2,2.56,1.02,2.56,1.02s-8.7,1.43-12.8,1.74c-41.88,3.28-132.71,1.64-136.09,2.05
			c-3.28,0.41-5.63,2.87-10.04,2.87c-4.4,0-31.74,0-31.74,0"/>
	</g>
</g>
</svg>
